<svg id="Layer_1" height="250" width="100%" data-name="Layer 1" xmlns="http://www.w3.org/2000/svg" viewBox="0 0 444.82 253.71"><defs><style>.cls-1{fill:none;}.cls-1,.cls-4{stroke:#231f20;}.cls-1,.cls-2,.cls-4{stroke-miterlimit:10;}.cls-2{fill:#66bd5a;stroke:#009444;}.cls-3{font-size:17px;font-family:OpenSans-Bold, Open Sans;font-weight:700;}.cls-3,.cls-4{fill:#fff;}</style></defs><title>Artboard 1</title><line class="cls-1" x1="43.92" y1="114.01" x2="94.67" y2="50.43"/><line class="cls-1" x1="144.33" y1="114.01" x2="93.58" y2="50.43"/><circle class="cls-2" cx="94.13" cy="38.35" r="17.77"/><circle class="cls-2" cx="40.7" cy="131.35" r="17.77"/><circle class="cls-2" cx="145.7" cy="132.35" r="17.77"/><circle class="cls-2" cx="40.7" cy="215.35" r="17.77"/><circle class="cls-2" cx="194.13" cy="38.35" r="17.77"/><text class="cls-3" transform="translate(89.27 43.15)">1</text><text class="cls-3" transform="translate(35.85 136.15)">2</text><text class="cls-3" transform="translate(140.85 137.15)">3</text><text class="cls-3" transform="translate(35.85 220.15)">4</text><circle class="cls-2" cx="145.7" cy="215.35" r="17.77"/><text class="cls-3" transform="translate(140.85 220.15)">5</text><text class="cls-3" transform="translate(189.27 43.15)">6</text><line class="cls-1" x1="40.7" y1="149.13" x2="40.7" y2="197.58"/><line class="cls-1" x1="145.7" y1="149.13" x2="145.7" y2="197.58"/><circle class="cls-2" cx="264.13" cy="38.35" r="17.77"/><text class="cls-3" transform="translate(259.56 42.86)">7</text><circle class="cls-2" cx="264.13" cy="132.35" r="17.77"/><text class="cls-3" transform="translate(259.27 137.15)">8</text><line class="cls-4" x1="264.13" y1="56.13" x2="264.13" y2="114.58"/><circle class="cls-2" cx="334.13" cy="38.35" r="17.77"/><text class="cls-3" transform="translate(329.27 43.15)">9</text><circle class="cls-2" cx="404.13" cy="38.35" r="17.77"/><text class="cls-3" transform="translate(394.42 43.15)">10</text></svg>